solid disconnected_shell
facet normal 0 0 -1
outer loop
vertex 0 0 0
vertex 0 20 0
vertex 20 0 0
endloop
endfacet
facet normal 0 -1 0
outer loop
vertex 0 0 0
vertex 20 0 0
vertex 0 0 20
endloop
endfacet
facet normal -1 0 0
outer loop
vertex 0 0 0
vertex 0 0 20
vertex 0 20 0
endloop
endfacet
facet normal 1 1 1
outer loop
vertex 20 0 0
vertex 0 20 0
vertex 0 0 20
endloop
endfacet
facet normal 0 0 -1
outer loop
vertex 45 0 0
vertex 45 12 0
vertex 57 0 0
endloop
endfacet
facet normal 0 -1 0
outer loop
vertex 45 0 0
vertex 57 0 0
vertex 45 0 12
endloop
endfacet
facet normal -1 0 0
outer loop
vertex 45 0 0
vertex 45 0 12
vertex 45 12 0
endloop
endfacet
facet normal 1 1 1
outer loop
vertex 57 0 0
vertex 45 12 0
vertex 45 0 12
endloop
endfacet
endsolid disconnected_shell
