solid tiny_shell
facet normal 0 0 -1
outer loop
vertex 0 0 0
vertex 0 20 0
vertex 20 0 0
endloop
endfacet
facet normal 0 -1 0
outer loop
vertex 0 0 0
vertex 20 0 0
vertex 0 0 20
endloop
endfacet
facet normal -1 0 0
outer loop
vertex 0 0 0
vertex 0 0 20
vertex 0 20 0
endloop
endfacet
facet normal 1 1 1
outer loop
vertex 20 0 0
vertex 0 20 0
vertex 0 0 20
endloop
endfacet
facet normal 0 0 -1
outer loop
vertex 35 0 0
vertex 35 0.25 0
vertex 35.25 0 0
endloop
endfacet
facet normal 0 -1 0
outer loop
vertex 35 0 0
vertex 35.25 0 0
vertex 35 0 0.25
endloop
endfacet
facet normal -1 0 0
outer loop
vertex 35 0 0
vertex 35 0 0.25
vertex 35 0.25 0
endloop
endfacet
facet normal 1 1 1
outer loop
vertex 35.25 0 0
vertex 35 0.25 0
vertex 35 0 0.25
endloop
endfacet
endsolid tiny_shell
